<?xml version="1.0" encoding="UTF-8"?><svg id="uuid-1cc992b8-f806-4d08-9bcc-68bb21eeb3b5" xmlns="http://www.w3.org/2000/svg" xmlns:xlink="http://www.w3.org/1999/xlink" viewBox="0 0 1425.51 352.56"><defs><style>.uuid-e32d42e9-e8a8-4385-8d90-7babca7526e2{fill:url(#uuid-4cff0055-f827-42ff-ab07-f01938fbf90c);stroke-width:0px;}</style><radialGradient id="uuid-4cff0055-f827-42ff-ab07-f01938fbf90c" cx="647.73" cy="183.42" fx="647.73" fy="183.42" r="417.94" gradientUnits="userSpaceOnUse"><stop offset="0" stop-color="#677d6a"/><stop offset="1" stop-color="#40534c"/></radialGradient></defs><g id="uuid-1d9f1b5f-7ecd-4e3c-820f-cb00f1fdf391"><path id="uuid-5967c280-3eab-4319-b084-c25de0b71cf6" class="uuid-e32d42e9-e8a8-4385-8d90-7babca7526e2" d="M248.48,96.3c5.61-.79,11.09-2.14,16.38-4v4.53c-6.49,2.23-13.24,3.8-20.14,4.63-11.62,1.39-23.51.66-34.56,4.93-9.32,3.6-16.9,10.45-25.18,15.99s-18.3,9.97-28.04,7.74c20.71-2.41,35.04-22.23,54.79-28.96,11.7-4.05,24.47-3.13,36.74-4.87ZM199.36,330.17c12.63-10.6,27.18-18.66,42.87-23.74.53-.8-.93-1.31-1.85-1.15-8.06,1.41-15.86,4.08-23.1,7.9-6.28,3.37-12.02,7.74-18.31,11.06-3.47,1.86-7.04,3.36-10.65,4.91-2.9,1.28-5.87,2.38-8.89,3.29-5.91,1.54-12.04,2.05-18.13,1.5-2.96-.21-5.94-.46-8.89-.91-1.4-.19-2.06-.45-2.12-.78-.16-.68,2.29-1.57,3.83-2.49,10.38-4.86,21.28-8.59,31.29-14.24,7.55-4.95,15.39-9.42,23.49-13.4,3.8-1.54,7.78-2.63,11.5-4.35,2.58-1.24,4.97-2.73,7.55-3.96,6.4-2.74,13.19-4.44,20.13-5.04,5.57-.67,11.17-1.08,16.77-1.25v-3.72c-8.88.4-17.74,1.44-26.48,3.16-28.12,6.67-52.1,25.06-78.56,36.22-7.73,3.63-16.13,5.62-24.67,5.86-8.3-.62-16.45-2.57-24.13-5.8-6.88-2.3-13.64-4.96-20.24-7.96-3.23-1.53-6.36-3.26-9.38-5.17-1.65-1.09-7.84-4.48-8.22-6.73.14-2.24,5.85-5.66,7.07-6.52,3-2.1,6.16-3.96,9.46-5.56,6.5-3.13,13.36-5.46,20.42-6.93,14.04-2.62,28.3-3.9,42.59-3.83,10.93-.07,21.84-.93,32.64-2.58,23.58-4.21,45.23-15.6,65.56-28.46,4.61-2.87,9.22-5.82,13.94-8.55v-4.84c-8.67,4.95-16.92,10.8-25.57,15.86-19.06,11.19-40.13,18.56-62.02,21.68-18.33,2.81-36.92,2.4-55.31,4.6-18.39,2.2-37.1,7.53-51.22,19.34-.84.93-1.96,1.56-3.2,1.77-1.11-.07-2.17-.48-3.03-1.19-3.57-2.48-6.6-5.64-8.94-9.3,9.37-12.81,24.91-19.82,40.46-23.19,15.54-3.37,31.57-3.62,47.23-6.26,19.07-3.06,37.47-9.35,54.41-18.61-20.53,7.52-41.85,12.69-63.55,15.43-17.11,2.18-34.71,2.92-50.7,9.25-10.37,4.43-20.03,10.33-28.7,17.53-.98.99-2.3,1.57-3.7,1.61-1.3-.35-2.43-1.17-3.17-2.3-11.72-13.44-21.42-28.51-28.8-44.74-2.16-5.53.83-4.86,6.07-5.74,4.61-.74,9.26-1.23,13.93-1.45,9.02-.58,18.1-.55,27.1-1.5,24.7-2.61,48.05-12.34,71.3-20.98,14.54-5.94,29.55-10.66,44.87-14.12,18.27-3.74,37.09-4.18,55.35-8.01,9.34-1.95,18.43-4.77,27.18-8.37v-4.61c-10.04,4.32-20.56,7.54-31.39,9.59-15.11,2.83-30.55,3.45-45.67,6-39.49,7.03-75.4,28.89-115.01,35.57-17.68,2.48-35.54,3.44-53.38,2.86-1.27.09-2.54-.17-3.67-.75-.8-.66-1.41-1.52-1.79-2.48-1.11-2.36-4.14-8.03-2.87-10.89,1.27-2.86,5.35-2.74,8.15-3.21,8.44-1.52,17-2.3,25.51-3.12,16.56-1.56,33.43-2.94,49.17-8.81,19.2-7.2,35.73-20.7,55.38-26.6,22.11-6.75,46.34-3.14,69.47-6.05,16.16-2.03,31.6-7.22,46.1-14.52v-4.2c-11.77,6.5-24.18,11.44-37.5,13.69-25.25,4.4-51.88-1.12-76.28,6.58-16.87,5.3-31.24,16.5-47.48,23.57-28.57,12.41-62.7,11.18-93.44,16.36-4.18-9.11,4.96-19.9,14.24-23.73,9.28-3.83,19.73-2.62,29.76-2.56,14.84.09,29.59-2.3,43.65-7.07,14.65-5.02,28.32-12.51,42.71-18.24,14.15-6.48,29.79-9,45.26-7.3-18.59-5.45-38.59.04-56.44,7.67-17.85,7.63-35.39,17.1-54.69,19.22-11.83,1.29-23.71-.2-35.52.89s-26.34,6.33-32.63,16.35c-2.38-11.08-3.29-22.43-2.71-33.75.15-5.03,1.19-10,3.06-14.67,1.26-3.03,4.45-4.8,7.69-4.27,16.39.55,32.75-1.57,48.46-6.28,15.2-4.59,29.98-11.61,45.86-11.88,15.13-.24,30.97,5.73,45.04.1,6.78-3.45,13.12-7.68,18.9-12.62,26.16-18.72,61.45-18.92,92.08-28.32v-3.72c-23.23,7.48-47.91,10.53-71.37,17.55-5.38,1.45-10.58,3.5-15.51,6.11-8.46,4.73-15.5,12.05-24.33,15.71-16.6,6.9-35.63-.03-53.41,2.4-10.15,2.09-20.05,5.19-29.57,9.28-18.49,6.45-38.08,9.16-57.62,7.97-.09,0-.17-.01-.26-.02-2.02-.26-3.44-2.1-3.18-4.12,1.03-6.44,2.46-12.82,4.3-19.08.93-6.75,5.34-12.52,11.61-15.22,6.88-2.91,14.59-3.17,21.58-5.67s13.06-6.92,20.22-8.13c5.93-1.24,12.22-.41,18.1-1.96,3.31-.84,6.4-2.4,9.75-2.96,3.89-.29,7.81.09,11.57,1.12,14.89,2.87,31.54,2.94,43.85-5.88,4.28-3.84,8.86-7.34,13.69-10.47,3.27-1.64,6.87-2.43,10.21-3.89,2.74-1.43,5.58-2.66,8.5-3.7,7.3-1.84,14.66,2.06,22.01,3.89,19.98,4.99,39.99-5.75,59.2-13.19.22-.1.44-.2.66-.29v-4.14c-9.17,4.88-18.73,8.97-28.6,12.21-10.85,3.59-22.48,4.13-33.61,1.56-7.41-1.91-14.65-5.6-21.85-3.49-2.89,1.15-5.72,2.46-8.46,3.93-2.55,1.14-5.28,1.74-7.83,2.88-6.74,2.93-11.64,8.9-17.88,12.78-11.16,6.93-25.25,6.33-38.29,4.66-6.07-1.21-12.32-1.28-18.41-.2-2.81.71-5.44,2.19-8.29,2.67-3.76.66-7.54,1.1-11.35,1.35-16.19,2.07-19.85,11.18-48.74,13.88-2.37.21,11.03-20.88,12.26-22.59,5.66-8.21,12.34-15.68,19.88-22.22,18.54-14.17,74.12-6.5,103.27-29.77-21.18,12.25-61.99,15.12-92.66,19.58C100.4,7.97,170.68-10.67,234.52,18.82c3.73,2.35,7.59,4.49,11.57,6.4-9.8,6.86-21.69,10.09-33.62,9.11-11.44-.57-22.75-2.96-34.2-2.49-15.25.65-29.86,6.31-41.56,16.11,15.21-8.55,32.46-12.8,49.9-12.28,13.63.72,27.36,5.06,40.72,2.2,7.26-1.51,13.93-5.08,21.27-6.13,5.74-.82,12.32.57,16.25,4.52v-5.69h.02c-20.75-14.66-42.81-24.36-69.26-28.4-33.65-5.21-68.09-.94-99.46,12.33C18.56,48-16.64,143.58,7.53,220c12.24,39.36,38.61,72.8,74.04,93.92,39.93,23.28,89.33,27.41,134.07,15.86,17.49-4.09,34.1-10.99,49.22-20.34v-2.94c-19.98,12.09-42.23,20.17-65.5,23.66ZM186.61,218.94c25.05-9.1,52.94-7.45,78.25-15.54v-4.55c-2.46.91-4.94,1.77-7.45,2.55-23.5,6.65-49.38,5.82-70.8,17.55ZM1204.96,334.16v-141.68h191.89v-18.4h-191.89V48.96h219.97v-18.4h-244.54v322h228.74c6.23,0,10.53-1.38,12.87-4.14,2.34-2.76,3.51-7.51,3.51-14.26h-220.55ZM969.21,335.08V30.56h-24.57v322h241.03v-17.48h-216.46ZM844.02,352.56h24.57V30.56h-24.57v322ZM665.01,182.82c24.57-18.09,44.75-33.88,60.55-47.38,15.79-13.49,30.03-29.05,42.71-46.69,12.67-17.63,21.74-37.03,27.2-58.19h-26.33c-5.07,19.63-13.46,37.57-25.16,53.82-11.7,16.26-25.06,30.67-40.07,43.24-15.02,12.58-33.64,26.84-55.87,42.78-22.23-15.94-40.86-30.2-55.87-42.78-15.02-12.57-28.37-26.98-40.07-43.24-11.7-16.25-20.09-34.19-25.16-53.82h-26.33c5.46,21.16,14.52,40.56,27.2,58.19,12.67,17.64,26.91,33.2,42.71,46.69,15.8,13.5,35.98,29.29,60.55,47.38-25.36,18.1-46.61,34.58-63.77,49.45-17.17,14.88-32.57,32.28-46.22,52.21-13.66,19.94-23.4,42.63-29.25,68.08h27.5c4.68-22.38,13.16-42.7,25.45-60.95,12.29-18.24,26.62-34.57,43-48.99,16.38-14.41,36.46-30.2,60.26-47.38,23.79,17.18,43.88,32.97,60.26,47.38,16.38,14.42,30.71,30.75,43,48.99,12.29,18.25,20.77,38.57,25.45,60.95h27.5c-5.85-25.45-15.6-48.14-29.25-68.08-13.66-19.93-29.06-37.33-46.22-52.21-17.17-14.87-38.42-31.35-63.77-49.45ZM289.43,334.16v-141.68h191.89v-18.4h-191.89V48.96h219.97v-18.4h-244.54v322h228.74c6.23,0,10.53-1.38,12.87-4.14,2.34-2.76,3.51-7.51,3.51-14.26h-220.55Z"/></g></svg>