<?xml version="1.0" encoding="UTF-8"?><svg id="uuid-9c96f7a4-6e9e-4422-b022-62f869e3ce89" xmlns="http://www.w3.org/2000/svg" xmlns:xlink="http://www.w3.org/1999/xlink" viewBox="0 0 1000 642.63"><defs><style>.uuid-5281b482-c295-4e12-888d-4ca1748e7c67{fill:url(#uuid-914cc043-ae3d-412d-bf99-59e8d17b4b5c);}.uuid-5281b482-c295-4e12-888d-4ca1748e7c67,.uuid-c9d80b8a-7cb8-4b59-adef-3078f6f4c446,.uuid-c0208bb5-b53c-4d4a-8285-24ceb935f880,.uuid-f8526703-f800-4eea-860b-d6c5459d3501{stroke-width:0px;}.uuid-c9d80b8a-7cb8-4b59-adef-3078f6f4c446{fill:url(#uuid-00253161-63e1-4b8f-8a0f-1a8b7c7b49e6);}.uuid-c0208bb5-b53c-4d4a-8285-24ceb935f880{fill:url(#uuid-29b5cb7d-0047-4061-b3c4-bb4230d471e2);}.uuid-f8526703-f800-4eea-860b-d6c5459d3501{fill:url(#uuid-5eea8921-2a03-44c5-99b6-b9260b976d0d);}</style><radialGradient id="uuid-00253161-63e1-4b8f-8a0f-1a8b7c7b49e6" cx="500.27" cy="528.22" fx="500.27" fy="528.22" r="82.3" gradientUnits="userSpaceOnUse"><stop offset="0" stop-color="#b3b9c5"/><stop offset="1" stop-color="#7b8495"/></radialGradient><radialGradient id="uuid-914cc043-ae3d-412d-bf99-59e8d17b4b5c" cx="692.4" cy="56.03" fx="692.4" fy="56.03" r="24.71" xlink:href="#uuid-00253161-63e1-4b8f-8a0f-1a8b7c7b49e6"/><radialGradient id="uuid-29b5cb7d-0047-4061-b3c4-bb4230d471e2" cx="304.78" cy="57.34" fx="304.78" fy="57.34" r="24.85" xlink:href="#uuid-00253161-63e1-4b8f-8a0f-1a8b7c7b49e6"/><radialGradient id="uuid-5eea8921-2a03-44c5-99b6-b9260b976d0d" cx="500" cy="321.32" fx="500" fy="321.32" r="420.26" xlink:href="#uuid-00253161-63e1-4b8f-8a0f-1a8b7c7b49e6"/></defs><g id="uuid-0cde5e03-8226-4362-94e7-97dcc0027848"><g id="uuid-0b633c19-df60-4ff7-965e-a33af265cba1"><path class="uuid-c9d80b8a-7cb8-4b59-adef-3078f6f4c446" d="M566.68,613.77c-9.02-2.35-25.35-16.42-33.3-24.22-18.85-18.48-29.59-51.26-35.11-44.52-14.31,17.44-21.81,46.55-60.47,67.65-12.49,6.82-23.44-8.26-8.63-17.36,28.88-17.75,46.9-50.66,48.84-66.98,3.96-33.35-12.6-6.65-23.15-32.96-6.52-16.27,1.4-41.54,29.55-50.67,44.12-14.31,77.55,32.25,56.32,57.72-8.78,10.53-15.87,3.75-17.89,9.39-9.06,25.35,22.97,67.91,47.92,82.69,14.86,8.8,5.39,21.72-4.08,19.26Z"/><path class="uuid-5281b482-c295-4e12-888d-4ca1748e7c67" d="M669.36,70.63c14.1-11.19,14.04-25.4,9.13-40.87,9.6,12.2,21.38,17.22,36.96,11.6-13.59,12.47-11.03,26.47-4.65,40.95-15.96-15.98-27.74-16.08-41.44-11.68Z"/><path class="uuid-c0208bb5-b53c-4d4a-8285-24ceb935f880" d="M281.81,42.99c15.26,6.03,26.65-.45,36.61-12.24-4.88,15.42-5.02,29.69,9.32,41.06-17.02-6.51-29.99.19-41.52,12.13,6.3-14.49,9.02-28.52-4.41-40.95Z"/><path class="uuid-f8526703-f800-4eea-860b-d6c5459d3501" d="M383.82,396.27c-.53-13.08-3.59-25.59-7.27-38.07-37.35-126.74-146.73-171.12-243.18-120.06-18.81,9.96-41.15,32.4-44.29,39.13-1.13,2.41-1.04,4.9.26,7.26,15.33,27.91,42.11,66.1,67.41,85.91,92.69,72.6,187.17,58.6,218.04,41.82,6.26-3.4,9.34-8.58,9.04-15.99ZM283.3,364.84c-12.77,13.56-29.06,17.83-47.09,16.02-87.23-8.76-64.09-152.31,20.02-130.38,42.41,11.06,68.16,70.74,27.07,114.37ZM906.28,270.01c-84.17-86.3-199.77-65.48-257.07,25.94-17.28,27.57-33.48,71.24-33.73,100.64-.21,24.02,51.82,26.46,75.72,27.32,0,.09,55.79,8.64,136.73-45.18,37.19-24.73,52.25-51.56,76.76-88.68,7.76-11.76,6.03-15.48,1.59-20.03ZM795.33,366.35c-13.96,11.97-28.26,12.35-39.36,13.52-71.79-.83-87.76-117.75-7.42-132.48,61.08-11.19,94.13,78.37,46.78,118.96ZM423.88,121.8c.06-41.58,34.32-73.64,73.99-73.21,40.17-.14,73.75,32.9,73.49,73.99-.25,39.06-32.76,74.78-77.57,72.7-38.66-1.79-69.97-33.47-69.91-73.48ZM600.54,358.71c-2.86,10.25-4.44,25.96-5.6,31.77-2.5,12.52-18.89,11.28-18.52-2.6,4.61-49.98,29.9-103.02,59-138.91,37.85-46.7,77.48-72.06,134.1-76.69,50.98-4.17,105.06,8.07,158.1,42.62,14.68,9.56,4.35,26.68-9.52,16.22-52.9-39.89-151.23-59.02-217.2-17.46-39.63,24.97-81.49,77.53-100.35,145.05ZM403.94,389.39c-5.71-59.58-46.59-134.71-105.67-173.76-54.31-35.89-132.91-26.81-192.41,2.43-12.51,6.15-25.14,16.58-32.24,18.82-7.19,2.27-21.49-8.65,4.68-24.88,60.18-37.35,141.26-51.82,207.79-24.27,52.03,21.55,120.33,94.21,136.49,199.61,2.24,14.65-17.17,17.34-18.64,2.06ZM999.94,523.33c-2.17,20.78-27.5-7.94-250.64,9.73-34.09,2.7-68.14,5.78-101.83,11.96-13.59,2.49-16.65-11.71-8.66-16.4,23.41-13.76,327.43-29.55,356.52-13.89,3.31,1.78,5.01,4.78,4.62,8.6ZM356.05,546.23c-17.82-1.07-8.47-3.63-91.09-10.39C35.49,517.05,2.48,547.36.06,526.68c-.73-6.21,4.79-10.26,10.94-10.74,34.73-2.69,75.4-6.81,132.57-4.98.06-1.38,190.92,7.53,215.95,17.6,10.15,4.08,6.62,18.28-3.47,17.67ZM633.14,498.91c10.56-10.89,111.07-48.09,217.31-60.8,15.29-1.83,77.68-8.06,99.64-7.39,16.8.51,16.11,18.47.19,18.66-184.03,2.18-306.47,63.99-308.32,64.4-9.11,2.03-14.8-8.7-8.82-14.87ZM368,510.33c-4.59,8.22-13.34,3.31-17.05,1.54-58.3-27.92-165.11-55.9-301.04-59.54-6.67-.18-12.56-2.24-12.81-8.91-.48-12.23,16.31-9.9,36.82-9.9,115.08,8.62,154.12,17.05,223.44,38.21,22.97,7.01,59.49,20.41,67.72,26.46,4.08,3,5.2,8.07,2.93,12.14ZM358.91,577.94c-6.94,2.27-51.83,3.24-87.72,10.37-129.43,25.69-180.5,50.04-203.71,54.33-10.48-.31-13.25-12.58-4.42-17.32,2.84-1.53,60.86-20.27,74.12-24.35,103.12-31.74,211.05-42.63,220.83-40.26,8.87,2.15,9.16,14.54.9,17.24ZM934.61,639.54c-13.99.57-51.63-22.02-204.1-52.53-61.71-12.35-96.17-1.53-95.11-19.03.64-10.45,12.73-8.59,16.44-8.59,28.14,2.56,56.31,3.94,83.98,9.41,127.67,25.29,199.73,52.09,203.44,54.78,6.86,4.98,3.41,15.63-4.66,15.96ZM352.4.29c57.98,15.96,70.98,102.62,10.9,134.3-27.57,14.54-59.62,8.77-78.35-6.39C364.35,149.81,414.25,50.63,352.4.29ZM646.2,0c-62.93,51.23-11.47,150.03,67.14,128.16-18.07,14.63-48.41,20.51-75.25,8.01-60.84-28.32-54.75-116.25,8.1-136.18ZM292.76,314.1c-.02,54.22-72.13,73.72-92.24,25.4-1.42-3.42,1.52-6.08,4.25-3.62,38.58,34.76,91.12-28.85,50.89-63.41-1.38-1.18-5.72-3.03-5.05-4.81.28-.73,1.46-1.68,2.14-1.6,20.69,2.5,37.32,17.72,40.01,48.03ZM744.78,264.47c.85-.19,1.96.77,2.94,1.2-.41.9-.57,2.21-1.27,2.63-29.1,17.55-21.24,66.53,14.83,74.29,27.2,5.85,35.84-17.68,37.34-6.46.1.75-.47,1.62-.83,2.4-13.15,28.25-48.35,35.54-72.72,15.07-30.21-25.37-25.12-79.33,19.71-89.14Z"/></g></g></svg>